#!OML:ASF F:\VICON\USERDATA\INSTALL\rory3\rory3.ASF
:FULLY-SPECIFIED
:DEGREES
145
root -9.50695 17.7976 3.51237 -3.52871 28.8642 1.30162
lowerback 10.8218 -0.57474 -3.63661
upperback 1.01937 -1.14139 0.87534
thorax -4.91521 -0.475643 3.13622
lowerneck -21.1041 -4.68212 -11.797
upperneck 30.3218 -4.77676 7.19335
head 14.4678 -2.38755 4.09314
rclavicle -2.15184e-014 8.15017e-015
rhumerus -36.5175 -17.5262 -77.1721
rradius 24.556
rwrist 10.2273
rhand -16.8361 7.11097
rfingers 7.12502
rthumb 9.39353 -22.6597
lclavicle -2.15184e-014 8.15017e-015
lhumerus -29.6796 2.85249 87.3917
lradius 32.4003
lwrist -5.06241
lhand -18.4812 30.4959
lfingers 7.12502
lthumb 7.80586 60.3318
rfemur -15.7537 3.89032 13.7173
rtibia 25.6229
rfoot -5.75435 8.86221
rtoes -8.56846
lfemur 9.46122 -9.77146 -28.0001
ltibia 32.6274
lfoot 2.23715 -15.7006
ltoes -2.66141
146
root -9.47381 17.8202 3.64287 -3.52432 29.547 1.19219
lowerback 10.6358 -0.547975 -3.61747
upperback 1.08726 -1.09243 0.930259
thorax -4.74333 -0.456181 3.1709
lowerneck -21.1383 -4.81176 -12.0237
upperneck 30.3402 -4.94783 7.40253
head 14.5207 -2.45726 4.18887
rclavicle -1.00386e-014 -1.25234e-014
rhumerus -36.42 -16.8782 -77.5379
rradius 24.6938
rwrist 9.45602
rhand -16.9472 7.3555
rfingers 7.12502
rthumb 9.28629 -22.42
lclavicle -1.00386e-014 -1.25234e-014
lhumerus -29.8117 2.98146 87.4385
lradius 31.8092
lwrist -5.57474
lhand -17.8102 30.1272
lfingers 7.12502
lthumb 8.45347 59.938
rfemur -15.155 3.55004 13.9298
rtibia 25.5896
rfoot -6.18984 8.69355
rtoes -9.42642
lfemur 8.43382 -9.64523 -27.451
ltibia 34.4289
lfoot 5.19794 -16.5941
ltoes -1.96512
147
root -9.44181 17.846 3.77446 -3.7168 30.1817 0.71711
lowerback 10.6345 -0.55675 -3.28893
upperback 1.02037 -1.06118 1.03164
thorax -4.81928 -0.443684 3.0879
lowerneck -21.0256 -4.90256 -12.1883
upperneck 30.4052 -5.0914 7.5699
head 14.5558 -2.51671 4.26403
rclavicle -1.24489e-014 6.55989e-015
rhumerus -36.7081 -16.42 -77.8256
rradius 25.0907
rwrist 9.07982
rhand -16.7777 7.23387
rfingers 7.12502
rthumb 9.44987 -22.5343
lclavicle -1.24489e-014 6.55989e-015
lhumerus -30.1617 3.18654 87.3323
lradius 31.2503
lwrist -6.35181
lhand -17.7433 29.3335
lfingers 7.12502
lthumb 8.51804 59.1417
rfemur -14.5309 3.37 14.513
rtibia 25.4796
rfoot -6.5983 8.45467
rtoes -9.52033
lfemur 7.35772 -9.3199 -26.4418
ltibia 36.2054
lfoot 8.46102 -17.6641
ltoes -1.93822
148
root -9.40835 17.8684 3.90743 -3.88487 30.9396 0.337208
lowerback 10.6282 -0.621071 -3.02417
upperback 0.974832 -1.1136 1.07192
thorax -4.86372 -0.472949 2.98843
lowerneck -20.9085 -4.93767 -12.237
upperneck 30.3529 -5.19254 7.73353
head 14.527 -2.5432 4.32104
rclavicle 4.2248e-014 -6.55989e-015
rhumerus -37.0403 -16.0695 -78.1239
rradius 25.5016
rwrist 8.70334
rhand -16.7556 7.33032
rfingers 7.12502
rthumb 9.47116 -22.4369
lclavicle 4.2248e-014 -6.55989e-015
lhumerus -30.552 3.24897 87.1845
lradius 30.8834
lwrist -7.12411
lhand -17.5315 29.0467
lfingers 7.12502
lthumb 8.72247 58.8465
rfemur -13.8822 3.40755 14.9329
rtibia 25.249
rfoot -6.62345 7.9389
rtoes -6.72405
lfemur 6.23459 -9.08117 -25.522
ltibia 37.9847
lfoot 12.0607 -18.371
ltoes 0.240626
149
root -9.37369 17.8926 4.03439 -3.99005 31.7153 -0.0393249
lowerback 10.5362 -0.664909 -2.81981
upperback 0.96652 -1.13873 1.19565
thorax -4.82066 -0.489016 3.00422
lowerneck -20.9137 -5.02408 -12.3938
upperneck 30.3311 -5.29917 7.85633
head 14.5434 -2.58902 4.37915
rclavicle 4.20119e-014 -7.55382e-015
rhumerus -37.1973 -15.6215 -78.344
rradius 25.8275
rwrist 8.4369
rhand -16.9979 7.5442
rfingers 7.12502
rthumb 9.23739 -22.2335
lclavicle 4.20119e-014 -7.55382e-015
lhumerus -30.8466 2.99564 87.2932
lradius 30.5702
lwrist -7.47649
lhand -17.3779 29.0262
lfingers 7.12502
lthumb 8.87071 58.8198
rfemur -13.2977 3.38515 15.3271
rtibia 24.9416
rfoot -6.50109 7.26588
rtoes -2.76476
lfemur 4.97896 -8.928 -24.6419
ltibia 39.781
lfoot 15.3284 -18.7047
ltoes 2.38433
150
root -9.33838 17.9146 4.15628 -4.25093 32.4877 -0.60043
lowerback 10.5026 -0.702092 -2.41647
upperback 0.982119 -1.13087 1.36185
thorax -4.79048 -0.492139 2.94814
lowerneck -21.0081 -5.05857 -12.4641
upperneck 30.3963 -5.29064 7.80388
head 14.5941 -2.59897 4.37334
rclavicle -3.69739e-014 -1.53064e-014
rhumerus -37.2875 -15.2754 -78.5021
rradius 26.0704
rwrist 8.30758
rhand -17.2587 7.86917
rfingers 7.12502
rthumb 8.98572 -21.9195
lclavicle -3.69739e-014 -1.53064e-014
lhumerus -30.9952 2.66473 87.485
lradius 30.0314
lwrist -7.43673
lhand -18.1729 28.2823
lfingers 7.12502
lthumb 8.10345 58.1069
rfemur -12.5938 3.19774 15.9363
rtibia 24.5862
rfoot -6.45654 6.71603
rtoes -0.722408
lfemur 3.71643 -8.81655 -23.652
ltibia 41.5829
lfoot 17.8231 -19.4678
ltoes 3.63516
151
root -9.30077 17.9312 4.27703 -4.6164 33.2843 -1.22836
lowerback 10.487 -0.753629 -2.04065
upperback 1.07019 -1.14099 1.60854
thorax -4.69111 -0.504324 2.99363
lowerneck -21.2526 -5.02317 -12.3045
upperneck 30.4438 -5.11952 7.39274
head 14.6276 -2.55911 4.20511
rclavicle -1.83876e-014 -1.96797e-014
rhumerus -37.1655 -14.5127 -78.7877
rradius 26.4136
rwrist 7.55671
rhand -17.3881 7.62148
rfingers 7.12502
rthumb 8.86088 -22.1725
lclavicle -1.83876e-014 -1.96797e-014
lhumerus -31.0639 2.60598 87.7164
lradius 29.6334
lwrist -7.76532
lhand -18.2903 27.7266
lfingers 7.12502
lthumb 7.99019 57.5556
rfemur -11.7179 3.08913 16.6023
rtibia 24.1119
rfoot -6.44285 6.18272
rtoes 1.21188
lfemur 2.41673 -8.7271 -22.6658
ltibia 43.4563
lfoot 20.208 -20.3924
ltoes 7.66943
152
root -9.25962 17.9522 4.39505 -4.92564 33.9658 -1.74437
lowerback 10.4165 -0.742349 -1.82809
upperback 1.17813 -1.08619 1.86461
thorax -4.54151 -0.481907 3.13048
lowerneck -21.3636 -5.03425 -12.2277
upperneck 30.4073 -5.04654 7.11177
head 14.6152 -2.5541 4.08487
rclavicle -7.26434e-014 6.75868e-015
rhumerus -37.0136 -13.6839 -79.0351
rradius 26.8123
rwrist 6.81465
rhand -17.3498 7.3325
rfingers 7.12502
rthumb 8.89783 -22.4599
lclavicle -7.26434e-014 6.75868e-015
lhumerus -31.1442 2.52223 87.9986
lradius 29.4219
lwrist -8.32046
lhand -17.5287 28.7448
lfingers 7.12502
lthumb 8.7252 58.5445
rfemur -10.7851 2.82568 17.1967
rtibia 23.5113
rfoot -6.52646 5.74984
rtoes 2.05318
lfemur 1.05492 -8.51006 -21.8432
ltibia 45.3633
lfoot 22.2874 -21.2918
ltoes 13.5913
153
root -9.21927 17.9662 4.51007 -5.16983 34.5135 -2.21048
lowerback 10.4647 -0.674873 -1.43778
upperback 1.16221 -0.948105 1.92614
thorax -4.5996 -0.41875 2.95602
lowerneck -21.3475 -5.09342 -12.2603
upperneck 30.4102 -5.14228 7.1764
head 14.6288 -2.58872 4.09987
rclavicle -4.31114e-015 -5.36719e-015
rhumerus -37.1283 -13.3872 -79.2561
rradius 27.1739
rwrist 6.57936
rhand -17.2717 7.45889
rfingers 7.12502
rthumb 8.97318 -22.3303
lclavicle -4.31114e-015 -5.36719e-015
lhumerus -31.4204 2.08964 88.1067
lradius 29.3336
lwrist -8.71133
lhand -16.7626 29.3878
lfingers 7.12502
lthumb 9.46442 59.1553
rfemur -9.92287 2.20799 17.7842
rtibia 22.8659
rfoot -6.80736 5.66237
rtoes 0.0191409
lfemur -0.396324 -8.13821 -21.094
ltibia 47.2917
lfoot 23.1642 -22.1148
ltoes 17.3802
154
root -9.18152 17.9771 4.62427 -5.62818 35.095 -2.75611
lowerback 10.8607 -0.5976 -0.819684
upperback 1.04977 -0.775092 1.86326
thorax -4.95791 -0.340025 2.52525
lowerneck -21.1684 -5.1532 -12.2286
upperneck 30.4715 -5.32535 7.35184
head 14.6451 -2.64062 4.1373
rclavicle -1.48592e-014 -1.43125e-014
rhumerus -37.5062 -13.52 -79.3566
rradius 27.4767
rwrist 6.99826
rhand -17.5342 8.03759
rfingers 7.12502
rthumb 8.7199 -21.7623
lclavicle -1.48592e-014 -1.43125e-014
lhumerus -31.8932 1.43034 88.0689
lradius 29.2097
lwrist -9.00454
lhand -16.6348 28.6651
lfingers 7.12502
lthumb 9.58774 58.4269
rfemur -8.96367 2.13703 18.4283
rtibia 22.3032
rfoot -7.01782 5.10944
rtoes -1.61249
lfemur -1.58806 -7.89696 -20.3402
ltibia 49.1512
lfoot 22.3047 -22.5585
ltoes 17.0888
155
root -9.14575 17.992 4.73415 -6.16541 35.6833 -3.34184
lowerback 11.2423 -0.570025 -0.252748
upperback 1.02259 -0.66641 1.84455
thorax -5.2115 -0.295389 2.17598
lowerneck -21.0011 -5.16445 -12.0951
upperneck 30.4035 -5.44957 7.46916
head 14.5918 -2.66168 4.13879
rclavicle 6.23563e-014 3.27995e-014
rhumerus -37.8512 -13.7077 -79.4118
rradius 28.0068
rwrist 7.73986
rhand -18.0458 8.34313
rfingers 7.12502
rthumb 8.22614 -21.4767
lclavicle 6.23563e-014 3.27995e-014
lhumerus -32.2243 1.06554 87.9103
lradius 28.9231
lwrist -9.21949
lhand -16.6982 27.5784
lfingers 7.12502
lthumb 9.52653 57.3431
rfemur -8.1109 2.78104 19.082
rtibia 21.9677
rfoot -7.04306 3.96247
rtoes -0.56975
lfemur -2.65109 -7.68615 -19.5565
ltibia 50.9195
lfoot 20.0744 -22.6225
ltoes 14.429
